<?xml version="1.0" standalone="no"?>
<!DOCTYPE svg PUBLIC "-//W3C//DTD SVG 20010904//EN"
 "http://www.w3.org/TR/2001/REC-SVG-20010904/DTD/svg10.dtd">
<svg version="1.0" xmlns="http://www.w3.org/2000/svg"
 width="458.000000pt" height="799.000000pt" viewBox="0 0 458.000000 799.000000"
 preserveAspectRatio="xMidYMid meet">

<g transform="translate(0.000000,799.000000) scale(0.100000,-0.100000)"
fill="#000000" stroke="none">
<path d="M383 7965 c-130 -59 -225 -146 -288 -266 -71 -135 -65 193 -65 -3689
0 -3882 -6 -3554 65 -3689 85 -160 235 -271 410 -300 53 -9 499 -12 1825 -9
l1755 3 66 23 c86 29 204 106 257 168 23 27 58 79 77 115 71 135 65 -193 65
3689 0 3882 6 3554 -65 3689 -65 123 -167 215 -295 268 l-55 23 -1850 -1
-1850 0 -52 -24z m2775 -328 c25 -22 43 -110 33 -162 -10 -55 -28 -84 -57 -95
-15 -6 -350 -10 -844 -10 -494 0 -829 4 -844 10 -47 17 -71 102 -54 185 11 55
22 73 53 86 11 4 396 7 856 6 788 -2 838 -3 857 -20z m962 -3192 l0 -2585
-1830 0 -1830 0 0 2585 0 2585 1830 0 1830 0 0 -2585z m-1765 -3126 c179 -33
305 -184 305 -365 0 -154 -117 -309 -266 -352 -53 -15 -155 -15 -208 0 -149
43 -266 198 -266 352 0 176 119 324 290 362 71 16 76 16 145 3z"/>
</g>
</svg>
